<svg xmlns="http://www.w3.org/2000/svg" xmlns:xlink="http://www.w3.org/1999/xlink" viewBox="126.478 129.911 589.092 258.574">
  <style>
    .logo-line{fill:none;stroke:#fff;stroke-width:1.6;stroke-linejoin:round;stroke-linecap:round;stroke-dasharray:1;stroke-dashoffset:1;vector-effect:non-scaling-stroke;opacity:0}
    .line-1{animation:grow-1 24s cubic-bezier(.22,1,.36,1) infinite}.line-2{animation:grow-2 24s cubic-bezier(.22,1,.36,1) infinite}.line-3{animation:grow-3 24s cubic-bezier(.22,1,.36,1) infinite}.line-4{animation:grow-4 24s cubic-bezier(.22,1,.36,1) infinite}.line-5{animation:grow-5 24s cubic-bezier(.22,1,.36,1) infinite}.line-6{animation:grow-6 24s cubic-bezier(.22,1,.36,1) infinite}
    @keyframes grow-1{0%{opacity:0;stroke-dashoffset:1}4%{opacity:.16}25%,82%{opacity:.16;stroke-dashoffset:0}100%{opacity:0;stroke-dashoffset:0}}
    @keyframes grow-2{0%,5%{opacity:0;stroke-dashoffset:1}9%{opacity:.16}30%,82%{opacity:.16;stroke-dashoffset:0}100%{opacity:0;stroke-dashoffset:0}}
    @keyframes grow-3{0%,10%{opacity:0;stroke-dashoffset:1}14%{opacity:.16}35%,82%{opacity:.16;stroke-dashoffset:0}100%{opacity:0;stroke-dashoffset:0}}
    @keyframes grow-4{0%,15%{opacity:0;stroke-dashoffset:1}19%{opacity:.16}40%,82%{opacity:.16;stroke-dashoffset:0}100%{opacity:0;stroke-dashoffset:0}}
    @keyframes grow-5{0%,20%{opacity:0;stroke-dashoffset:1}24%{opacity:.16}45%,82%{opacity:.16;stroke-dashoffset:0}100%{opacity:0;stroke-dashoffset:0}}
    @keyframes grow-6{0%,25%{opacity:0;stroke-dashoffset:1}29%{opacity:.16}50%,82%{opacity:.16;stroke-dashoffset:0}100%{opacity:0;stroke-dashoffset:0}}
    @media (prefers-reduced-motion:reduce){.logo-line{animation:none;opacity:.12;stroke-dashoffset:0}}
  </style>
  <defs>
    <path id="backdrop-logo-1" pathLength="1" d="M0 0s-23.006-22.795-37.359-92.989l-15.467-72.595h39.695L2.336-92.989C-17.966-60.923 0 0 0 0" transform="matrix(1 0 0 -1 179.304 129.911)"/>
    <path id="backdrop-logo-2" pathLength="1" d="m0 0-9.208 29.95h-39.159l-15.467-72.596h36.119l7.241 34.152 10.193-34.152h37.46L42.645 29.95H6.437Z" transform="matrix(1 0 0 -1 239.216 252.85)"/>
    <path id="backdrop-logo-3" pathLength="1" d="m0 0-14.483-33.258L-15.288 0h-29.413l-14.931-33.258L-59.99 0h-40.052l5.274-72.595h40.679l15.11 30.755 2.055-30.755H3.755L40.053 0Z" transform="matrix(1 0 0 -1 386.462 222.9)"/>
    <path id="backdrop-logo-4" pathLength="1" d="M0 0h-8.404l9.477 24.676Zm-26.464 40.857-33.347-72.595h40.947l5.543 15.735h11.354l-.984-15.735h41.037l-2.414 72.595Z" transform="matrix(1 0 0 -1 470.858 263.758)"/>
    <path id="backdrop-logo-5" pathLength="1" d="M0 0q-.627-2.772-2.146-3.934-1.521-1.163-4.649-1.163h-4.381L-9.03 5.185h4.381q3.307 0 4.291-1.117Q.624 2.949 0 0m41.126 4.471q.98 4.558.223 7.866-.76 3.308-3.398 5.366-2.639 2.054-7.286 3.039-4.649.983-11.533.983h-64.28l-15.468-72.596h39.695l6.348 29.95h4.381q3.306-.001 4.291-1.162.981-1.163.358-4.022l-5.275-24.766h40.321l3.934 18.686q1.966 9.298-.984 13.946t-11.266 6.17q4.561.804 7.958 2.101 3.398 1.294 5.811 3.308a16.1 16.1 0 0 1 3.89 4.738q1.474 2.726 2.28 6.393" transform="matrix(1 0 0 -1 574.208 244.625)"/>
    <path id="backdrop-logo-6" pathLength="1" d="m0 0-6.169-29.056q-.627-2.95-2.056-4.068-1.432-1.119-4.739-1.119h-4.381l8.316 39.428h4.381q3.305 0 4.291-1.117Q.624 2.949 0 0m41.707 13.187q-.76 2.995-3.353 4.873-2.593 1.877-7.197 2.771-4.606.893-11.398.894h-64.907l-15.468-72.596h52.595c20.301-32.066 1.806-92.988 1.806-92.988s23.535 22.795 37.889 92.988L41.572 6.08q.894 4.11.135 7.107" transform="matrix(1 0 0 -1 673.356 244.625)"/>
  </defs>
  <g>
    <use xlink:href="#backdrop-logo-1" class="logo-line line-1"/>
    <use xlink:href="#backdrop-logo-2" class="logo-line line-2"/>
    <use xlink:href="#backdrop-logo-3" class="logo-line line-3"/>
    <use xlink:href="#backdrop-logo-4" class="logo-line line-4"/>
    <use xlink:href="#backdrop-logo-5" class="logo-line line-5"/>
    <use xlink:href="#backdrop-logo-6" class="logo-line line-6"/>
  </g>
</svg>
